<svg xmlns="http://www.w3.org/2000/svg" viewBox="180 270 1340 375" role="img" aria-labelledby="title">
  <title id="title">Virro</title>
  <path d="M236 290l-16 7-11 12-5 17 3 19 11 15 86 78 6 13v12l-5 13-87 76-11 16-3 21 2 10 6 11 16 12 17 2 9-2 13-7 105-68 7-7 6-12 1-15-5-14-14-14v-11l16-20 3-23-2-10-7-13-109-108-8-6-11-4z" fill="#076FF6"/>
  <path d="M597 290l-18 7-115 115-6 15v19l7 16 10 7 3 12-3 7-14 13-4 19 2 11 9 14 110 72 14 6 13 1 16-5 14-15 4-12-2-22-9-15-88-77-7-16 1-13 7-13 86-77 10-15 2-22-6-15-11-11-8-4z" fill="#FF4B45"/>
  <path d="M1372 415l-15 6-18 12-14 16-8 15-4 11-3 15v22l2 11 6 17 8 13 13 14 13 9 22 9 15 3h26l15-3 14-5 18-11 14-14 12-22 5-19 1-18-2-16-7-20-7-12-12-14-16-11-13-6-10-3-19-3h-15zm-653-70 8 23 96 213h40l88-195 16-41h-44l-79 179-3-1-75-177zm672 101h7l1-1 13 1 1 1 3 0 1 1 5 1 10 5 11 10 4 6 5 10 1 6 1 1v4l1 1v15l-1 1-1 8-3 6v2l-6 10-10 10-6 4-6 3h-2l-4 2h-3l-1 1h-21l-1-1h-3l-6-3h-2l-4-3-3-1-13-12-6-10v-2l-2-3-1-6-1-1v-8l-1-1 1-14 1-1 1-7 2-3v-2l6-10 11-11 9-5h2l3-2 6-1zm-221-32-22-1-12 3-15 9-10 12-3-1v-19l-1-1h-37l-1 1v163l1 1h37l1-1v-94l2-7 8-14 8-8 13-7 11-2h12l5 2 4-1v-34zm127 0-20-1-12 3-14 8-12 13-3-1v-19l-1-1h-37v164l1 1h36l1-1v-65l1-1-1-3v-18l1-1 1-12 9-16 12-10 6-3 12-3h12l6 2 3-1v-34zm-304 2-1 1v163l1 1h36l1-1V417l-1-1zm13-75-10 4-6 6-4 8v13l3 7 7 7 6 3 12 1 1-1h3l5-2 8-7 4-9v-11l-3-8-10-9h-2l-4-2z" fill="#06165A"/>
</svg>
