<svg xmlns="http://www.w3.org/2000/svg" viewBox="250 250 750 600" role="img" aria-labelledby="title">
  <title id="title">Virro</title>
  <path d="M342 282l-29 10-18 19-9 25 4 32 20 28 131 122 11 28-2 19-9 18-130 117-20 28-5 19v19l9 27 19 20 16 7 21 1 22-8 187-129 9-17 3-25-6-21-24-25-2-18 27-36 4-37-6-21-9-15L384 296l-17-10z" fill="#076FF6"/>
  <path d="M907 282l-19 4-19 12-174 177-10 26v29l9 23 19 19 2 18-6 12-18 16-8 28 3 3 2 24 17 21 176 119 17 7 20 1 25-11 19-26 5-22-5-34-10-18-137-126-12-28 1-17 10-21 133-125 16-26 4-26-9-30-22-22-19-7z" fill="#FF4B45"/>
</svg>
